<?xml version="1.0" encoding="UTF-8"?>
<svg id="Layer_2" xmlns="http://www.w3.org/2000/svg" version="1.1" viewBox="0 0 124.1 129.6">
  <!-- Generator: Adobe Illustrator 29.1.0, SVG Export Plug-In . SVG Version: 2.1.0 Build 142)  -->
  <defs>
    <style>
      .st0 {
        fill: #191919;
      }
    </style>
  </defs>
  <path class="st0" d="M34.5,27.5l-7,7.1,21.6,21.6c-5.1,3.7-11.3,5.8-18.1,5.8C13.9,62,0,48.2,0,31S13.9,0,31,0s31,13.9,31,31-2.2,13-5.8,18.1l-21.6-21.6h0Z"/>
  <path class="st0" d="M124.1,31c0,15.4-11.3,28.2-26,30.6v-30.6h-10v30.6c-14.8-2.4-26-15.2-26-30.6S75.9,0,93,0s31,13.9,31,31h0Z"/>
  <path class="st0" d="M62,93c0,17.1-13.9,31-31,31S0,110.2,0,93s11.3-28.2,26-30.6v30.6h10v-30.6c14.7,2.4,26,15.2,26,30.6Z"/>
  <path class="st0" d="M124.1,93c0,17.1-13.9,31-31,31s-31-13.9-31-31,2.2-13,5.8-18.1l21.6,21.6,7.1-7.1-21.6-21.6c5.1-3.7,11.3-5.8,18.1-5.8,17.1,0,31,13.9,31,31Z"/>
</svg>