<?xml version="1.0" encoding="UTF-8"?>
<svg id="Layer_2" data-name="Layer 2" xmlns="http://www.w3.org/2000/svg" viewBox="0 0 789.9 129.64">
  <defs>
    <style>
      .cls-1 {
        fill: #191919;
        stroke-width: 0px;
      }
    </style>
  </defs>
  <g id="Layer_1-2" data-name="Layer 1">
    <g>
      <path class="cls-1" d="m771.24,93.44h18.66v9.96h-12.32c-4.97,0-8.81-.64-11.5-1.93-2.7-1.29-4.59-3.24-5.66-5.85-1.08-2.61-1.62-6.11-1.62-10.51v-34.33h-11.82v-9.58h11.82v-14.06h12.44v14.06h18.66v9.58h-18.66v42.66Z"/>
      <g>
        <g>
          <path class="cls-1" d="m225.36,20.67v74.64c-2.57-5.89-4.52-10.16-5.84-12.81l-31.97-61.83h-22.14v82.73h12.81V28.76c1.16,2.99,3.15,7.34,5.97,13.06l31.84,61.58h22.15V20.67h-12.82Z"/>
          <path class="cls-1" d="m303.82,89.22v-30.85c0-5.89-2.18-10.58-6.53-14.06-4.36-3.48-10.72-5.22-19.1-5.22s-15.46,1.9-20.27,5.72c-4.81,3.81-7.26,9.08-7.34,15.79h12.44c.33-3.98,1.76-6.96,4.29-8.95,2.53-1.99,6.32-2.99,11.38-2.99s8.6.81,10.64,2.43c2.03,1.62,3.04,3.96,3.04,7.03,0,2.15-.68,3.77-2.05,4.85-1.37,1.08-3.59,1.86-6.65,2.36l-15.55,2.61c-6.72,1.17-11.55,3.3-14.49,6.41-2.95,3.11-4.42,7.24-4.42,12.38,0,5.72,1.84,10.2,5.53,13.43,3.69,3.24,8.73,4.85,15.12,4.85s11.07-1.49,14.8-4.47c3.73-2.99,6.3-6.72,7.71-11.2,0,4.48.25,9.16.75,14.06h11.32c-.42-4.9-.62-9.62-.62-14.18Zm-11.45-16.05c0,6.47-1.74,11.8-5.22,15.98-3.48,4.19-8.38,6.29-14.68,6.29-3.32,0-5.95-.81-7.9-2.43-1.95-1.62-2.92-3.88-2.92-6.78s.87-5.04,2.61-6.66c1.74-1.61,4.56-2.88,8.46-3.79l8.58-1.99c2.41-.58,4.48-1.18,6.22-1.8s3.36-1.47,4.85-2.55v3.73Z"/>
          <path class="cls-1" d="m368.99,45.55c-3.53-4.23-9.31-6.34-17.36-6.34-10.69,0-18.2,5.31-22.51,15.92v-13.93h-12.44v62.2h12.44v-26.25c0-9.62,1.57-16.63,4.73-21.02,3.15-4.4,7.87-6.6,14.18-6.6,4.39,0,7.79,1.19,10.2,3.55,2.4,2.36,3.61,6.57,3.61,12.63v37.69h12.43v-38.81c0-8.46-1.76-14.81-5.28-19.04Z"/>
          <path class="cls-1" d="m444.26,55.44c-2.41-5.01-6.02-8.97-10.82-11.88-4.81-2.9-10.7-4.35-17.67-4.35s-12.85,1.45-17.66,4.35c-4.81,2.91-8.42,6.84-10.82,11.82-2.41,4.98-3.61,10.57-3.61,16.79s1.2,11.97,3.61,16.98c2.4,5.02,6.01,8.98,10.82,11.88,4.81,2.9,10.7,4.36,17.66,4.36s12.86-1.48,17.67-4.42c4.8-2.94,8.41-6.92,10.82-11.94,2.4-5.02,3.61-10.64,3.61-16.86s-1.21-11.71-3.61-16.73Zm-13.62,34.58c-3.11,3.61-8.07,5.42-14.87,5.42s-11.75-1.81-14.86-5.42c-3.11-3.6-4.67-9.51-4.67-17.72s1.56-14.12,4.67-17.73c3.11-3.61,8.06-5.41,14.86-5.41s11.76,1.8,14.87,5.41c3.11,3.61,4.66,9.52,4.66,17.73s-1.55,14.12-4.66,17.72Z"/>
          <path class="cls-1" d="m438.95,20.67v10.33h28.73v72.4h12.81V31h28.61v-10.33h-70.15Z"/>
          <path class="cls-1" d="m555.83,89.22v-30.85c0-5.89-2.18-10.58-6.53-14.06-4.36-3.48-10.72-5.22-19.1-5.22s-15.47,1.9-20.27,5.72c-4.81,3.81-7.26,9.08-7.34,15.79h12.44c.33-3.98,1.76-6.96,4.29-8.95,2.53-1.99,6.32-2.99,11.38-2.99s8.6.81,10.64,2.43c2.03,1.62,3.04,3.96,3.04,7.03,0,2.15-.68,3.77-2.05,4.85s-3.59,1.86-6.65,2.36l-15.55,2.61c-6.72,1.17-11.55,3.3-14.5,6.41-2.94,3.11-4.41,7.24-4.41,12.38,0,5.72,1.84,10.2,5.53,13.43,3.69,3.24,8.73,4.85,15.12,4.85s11.07-1.49,14.8-4.47c3.73-2.99,6.3-6.72,7.71-11.2,0,4.48.25,9.16.75,14.06h11.32c-.42-4.9-.62-9.62-.62-14.18Zm-11.45-16.05c0,6.47-1.74,11.8-5.22,15.98-3.48,4.19-8.38,6.29-14.68,6.29-3.32,0-5.95-.81-7.9-2.43-1.95-1.62-2.92-3.88-2.92-6.78s.87-5.04,2.61-6.66c1.74-1.61,4.56-2.88,8.46-3.79l8.58-1.99c2.41-.58,4.48-1.18,6.22-1.8,1.74-.62,3.36-1.47,4.85-2.55v3.73Z"/>
          <path class="cls-1" d="m603.02,40.2c-10.37,0-17.7,5.35-22.02,16.05v-15.05h-12.31v62.2h12.44v-23.76c0-9.21,1.47-16.07,4.41-20.59,2.95-4.52,8.36-6.78,16.24-6.78h3.11v-12.07h-1.87Z"/>
          <path class="cls-1" d="m660.78,41.2v9.95c-4.32-7.71-11.78-11.57-22.39-11.57-9.71,0-17.03,2.8-21.96,8.4-4.93,5.6-7.4,13.17-7.4,22.7s2.47,17.1,7.4,22.7c4.93,5.6,12.25,8.4,21.96,8.4,10.86,0,18.32-3.65,22.39-10.95v11.94c0,6.31-1.52,10.76-4.54,13.38-3.03,2.61-7.99,3.91-14.87,3.91-11.61,0-17.83-4.43-18.66-13.3h-12.44c.58,7.46,3.53,13.14,8.84,17.04,5.3,3.89,12.68,5.84,22.14,5.84,11.27,0,19.42-2.22,24.44-6.65,5.02-4.44,7.53-11.05,7.53-19.84v-61.95h-12.44Zm-4.73,45.9c-3.15,3.4-8.04,5.1-14.68,5.1s-12-1.64-15.11-4.91c-3.11-3.28-4.67-8.81-4.67-16.61s1.56-13.33,4.67-16.61c3.11-3.27,8.15-4.91,15.11-4.91s11.53,1.7,14.68,5.1c3.15,3.4,4.73,8.88,4.73,16.42s-1.58,13.02-4.73,16.42Z"/>
          <path class="cls-1" d="m715.3,96.18c-5.81,0-10.41-1.55-13.81-4.66-3.4-3.11-5.35-8.36-5.84-15.74h49.01c.16-1.08.24-2.65.24-4.73,0-6.05-1.14-11.48-3.42-16.29-2.28-4.81-5.68-8.6-10.2-11.38-4.52-2.78-9.97-4.17-16.35-4.17-6.89,0-12.69,1.45-17.42,4.35-4.73,2.91-8.25,6.84-10.57,11.82-2.33,4.98-3.49,10.57-3.49,16.79,0,9.87,2.62,17.88,7.84,24.01,5.23,6.14,13.1,9.21,23.64,9.21,9.78,0,17.02-2.1,21.7-6.29,4.69-4.18,7.4-9.01,8.15-14.49h-11.44c-2.08,7.72-8.09,11.57-18.04,11.57Zm-13.56-43.6c3.23-2.78,7.67-4.17,13.31-4.17,11.36,0,17.33,6.1,17.91,18.29h-37.19c.75-6.63,2.74-11.34,5.97-14.12Z"/>
        </g>
        <g>
          <path class="cls-1" d="m34.53,27.48l-7.05,7.07,21.63,21.63c-5.09,3.69-11.34,5.85-18.09,5.85C13.88,62.03,0,48.15,0,31.01S13.88,0,31.01,0s31.01,13.88,31.01,31.01c0,6.75-2.16,13-5.85,18.09l-21.65-21.63Z"/>
          <path class="cls-1" d="m124.06,31.01c0,15.44-11.28,28.24-26.02,30.61v-30.61h-9.99v30.61c-14.76-2.38-26.02-15.18-26.02-30.61,0-17.13,13.88-31.01,31.01-31.01s31.01,13.88,31.01,31.01Z"/>
          <path class="cls-1" d="m62.03,93.04c0,17.13-13.9,31.01-31.01,31.01S0,110.18,0,93.04c0-15.44,11.26-28.24,26.02-30.61v30.61h9.99v-30.61c14.74,2.38,26.02,15.18,26.02,30.61Z"/>
          <path class="cls-1" d="m124.06,93.04c0,17.13-13.9,31.01-31.01,31.01s-31.01-13.88-31.01-31.01c0-6.75,2.16-13,5.85-18.09l21.63,21.63,7.05-7.07-21.63-21.63c5.09-3.67,11.34-5.85,18.11-5.85,17.11,0,31.01,13.88,31.01,31.01Z"/>
        </g>
      </g>
    </g>
  </g>
</svg>